<svg class="railroad-diagram" width="610" height="1178" viewBox="0 0 610 1178" xmlns="http://www.w3.org/2000/svg" xmlns:xlink="http://www.w3.org/1999/xlink">
<g transform="translate(.5 .5)">
<g>
<path d="M20 21v20m10 -20v20m-10 -10h20"></path>
</g>
<g>
<path d="M40 31h0"></path>
<path d="M570 31h0"></path>
<path d="M40 31h20"></path>
<g class="terminal ">
<path d="M60 31h215"></path>
<path d="M335 31h215"></path>
<rect x="275" y="20" width="60" height="22" rx="10" ry="10"></rect>
<text x="305" y="35">move</text>
</g>
<path d="M550 31h20"></path>
<path d="M40 31a10 10 0 0 1 10 10v12a10 10 0 0 0 10 10"></path>
<g class="terminal ">
<path d="M60 63h195"></path>
<path d="M355 63h195"></path>
<rect x="255" y="52" width="100" height="22" rx="10" ry="10"></rect>
<text x="305" y="67">turnleft</text>
</g>
<path d="M550 63a10 10 0 0 0 10 -10v-12a10 10 0 0 1 10 -10"></path>
<path d="M40 31a10 10 0 0 1 10 10v44a10 10 0 0 0 10 10"></path>
<g class="terminal ">
<path d="M60 95h205"></path>
<path d="M345 95h205"></path>
<rect x="265" y="84" width="80" height="22" rx="10" ry="10"></rect>
<text x="305" y="99">pickup</text>
</g>
<path d="M550 95a10 10 0 0 0 10 -10v-44a10 10 0 0 1 10 -10"></path>
<path d="M40 31a10 10 0 0 1 10 10v76a10 10 0 0 0 10 10"></path>
<g class="terminal ">
<path d="M60 127h215"></path>
<path d="M335 127h215"></path>
<rect x="275" y="116" width="60" height="22" rx="10" ry="10"></rect>
<text x="305" y="131">drop</text>
</g>
<path d="M550 127a10 10 0 0 0 10 -10v-76a10 10 0 0 1 10 -10"></path>
<path d="M40 31a10 10 0 0 1 10 10v108a10 10 0 0 0 10 10"></path>
<g class="non-terminal ">
<path d="M60 159h130"></path>
<path d="M420 159h130"></path>
<rect x="190" y="148" width="230" height="22"></rect>
<text x="305" y="163">method name as STRING</text>
</g>
<path d="M550 159a10 10 0 0 0 10 -10v-108a10 10 0 0 1 10 -10"></path>
<path d="M40 31a10 10 0 0 1 10 10v140a10 10 0 0 0 10 10"></path>
<g>
<path d="M60 191h0"></path>
<path d="M60 191h10"></path>
<g>
<path d="M70 191h10"></path>
<path d="M530 191h10"></path>
<g class="terminal ">
<path d="M80 191h0"></path>
<path d="M160 191h0"></path>
<rect x="80" y="180" width="80" height="22" rx="10" ry="10"></rect>
<text x="120" y="195">repeat</text>
</g>
<path d="M160 191h10"></path>
<g>
<path d="M170 191h0"></path>
<path d="M530 191h0"></path>
<path d="M170 191h20"></path>
<g>
<path d="M190 191h5"></path>
<path d="M505 191h5"></path>
<g class="terminal ">
<path d="M195 191h0"></path>
<path d="M265 191h0"></path>
<rect x="195" y="180" width="70" height="22" rx="10" ry="10"></rect>
<text x="230" y="195">until</text>
</g>
<path d="M265 191h10"></path>
<g>
<path d="M275 191h0"></path>
<path d="M365 191h0"></path>
<path d="M275 191h20"></path>
<g class="terminal ">
<path d="M295 191h5"></path>
<path d="M340 191h5"></path>
<rect x="300" y="180" width="40" height="22" rx="10" ry="10"></rect>
<text x="320" y="195">is</text>
</g>
<path d="M345 191h20"></path>
<path d="M275 191a10 10 0 0 1 10 10v12a10 10 0 0 0 10 10"></path>
<g class="terminal ">
<path d="M295 223h0"></path>
<path d="M345 223h0"></path>
<rect x="295" y="212" width="50" height="22" rx="10" ry="10"></rect>
<text x="320" y="227">not</text>
</g>
<path d="M345 223a10 10 0 0 0 10 -10v-12a10 10 0 0 1 10 -10"></path>
</g>
<g>
<path d="M365 191h0"></path>
<path d="M505 191h0"></path>
<path d="M365 191h20"></path>
<g class="terminal ">
<path d="M385 191h10"></path>
<path d="M475 191h10"></path>
<rect x="395" y="180" width="80" height="22" rx="10" ry="10"></rect>
<text x="435" y="195">random</text>
</g>
<path d="M485 191h20"></path>
<path d="M365 191a10 10 0 0 1 10 10v12a10 10 0 0 0 10 10"></path>
<g class="terminal ">
<path d="M385 223h0"></path>
<path d="M485 223h0"></path>
<rect x="385" y="212" width="100" height="22" rx="10" ry="10"></rect>
<text x="435" y="227">random10</text>
</g>
<path d="M485 223a10 10 0 0 0 10 -10v-12a10 10 0 0 1 10 -10"></path>
<path d="M365 191a10 10 0 0 1 10 10v44a10 10 0 0 0 10 10"></path>
<g class="terminal ">
<path d="M385 255h15"></path>
<path d="M470 255h15"></path>
<rect x="400" y="244" width="70" height="22" rx="10" ry="10"></rect>
<text x="435" y="259">house</text>
</g>
<path d="M485 255a10 10 0 0 0 10 -10v-44a10 10 0 0 1 10 -10"></path>
<path d="M365 191a10 10 0 0 1 10 10v76a10 10 0 0 0 10 10"></path>
<g class="terminal ">
<path d="M385 287h20"></path>
<path d="M465 287h20"></path>
<rect x="405" y="276" width="60" height="22" rx="10" ry="10"></rect>
<text x="435" y="291">wall</text>
</g>
<path d="M485 287a10 10 0 0 0 10 -10v-76a10 10 0 0 1 10 -10"></path>
<path d="M365 191a10 10 0 0 1 10 10v108a10 10 0 0 0 10 10"></path>
<g class="terminal ">
<path d="M385 319h15"></path>
<path d="M470 319h15"></path>
<rect x="400" y="308" width="70" height="22" rx="10" ry="10"></rect>
<text x="435" y="323">north</text>
</g>
<path d="M485 319a10 10 0 0 0 10 -10v-108a10 10 0 0 1 10 -10"></path>
<path d="M365 191a10 10 0 0 1 10 10v140a10 10 0 0 0 10 10"></path>
<g class="terminal ">
<path d="M385 351h20"></path>
<path d="M465 351h20"></path>
<rect x="405" y="340" width="60" height="22" rx="10" ry="10"></rect>
<text x="435" y="355">east</text>
</g>
<path d="M485 351a10 10 0 0 0 10 -10v-140a10 10 0 0 1 10 -10"></path>
<path d="M365 191a10 10 0 0 1 10 10v172a10 10 0 0 0 10 10"></path>
<g class="terminal ">
<path d="M385 383h15"></path>
<path d="M470 383h15"></path>
<rect x="400" y="372" width="70" height="22" rx="10" ry="10"></rect>
<text x="435" y="387">south</text>
</g>
<path d="M485 383a10 10 0 0 0 10 -10v-172a10 10 0 0 1 10 -10"></path>
<path d="M365 191a10 10 0 0 1 10 10v204a10 10 0 0 0 10 10"></path>
<g class="terminal ">
<path d="M385 415h20"></path>
<path d="M465 415h20"></path>
<rect x="405" y="404" width="60" height="22" rx="10" ry="10"></rect>
<text x="435" y="419">west</text>
</g>
<path d="M485 415a10 10 0 0 0 10 -10v-204a10 10 0 0 1 10 -10"></path>
<path d="M365 191a10 10 0 0 1 10 10v236a10 10 0 0 0 10 10"></path>
<g class="terminal ">
<path d="M385 447h0"></path>
<path d="M485 447h0"></path>
<rect x="385" y="436" width="100" height="22" rx="10" ry="10"></rect>
<text x="435" y="451">beenhere</text>
</g>
<path d="M485 447a10 10 0 0 0 10 -10v-236a10 10 0 0 1 10 -10"></path>
</g>
</g>
<path d="M510 191h20"></path>
<path d="M170 191a10 10 0 0 1 10 10v268a10 10 0 0 0 10 10"></path>
<g>
<path d="M190 479h0"></path>
<path d="M510 479h0"></path>
<g class="non-terminal ">
<path d="M190 479h0"></path>
<path d="M410 479h0"></path>
<rect x="190" y="468" width="220" height="22"></rect>
<text x="300" y="483">repetition as NUMBER</text>
</g>
<path d="M410 479h10"></path>
<path d="M420 479h10"></path>
<g class="terminal ">
<path d="M430 479h0"></path>
<path d="M510 479h0"></path>
<rect x="430" y="468" width="80" height="22" rx="10" ry="10"></rect>
<text x="470" y="483">-times</text>
</g>
</g>
<path d="M510 479a10 10 0 0 0 10 -10v-268a10 10 0 0 1 10 -10"></path>
</g>
</g>
<path d="M540 191a10 10 0 0 1 10 10v289a10 10 0 0 1 -10 10h-470a10 10 0 0 0 -10 10v1a10 10 0 0 0 10 10"></path>
<g class="non-terminal ">
<path d="M70 521h200"></path>
<path d="M340 521h200"></path>
<rect x="270" y="510" width="70" height="22"></rect>
<text x="305" y="525">block</text>
</g>
<path d="M540 521a10 10 0 0 1 10 10v1a10 10 0 0 1 -10 10h-470a10 10 0 0 0 -10 10v1a10 10 0 0 0 10 10"></path>
<g class="terminal ">
<path d="M70 563h210"></path>
<path d="M330 563h210"></path>
<rect x="280" y="552" width="50" height="22" rx="10" ry="10"></rect>
<text x="305" y="567">end</text>
</g>
<path d="M540 563h10"></path>
<path d="M550 563h0"></path>
</g>
<path d="M550 563a10 10 0 0 0 10 -10v-512a10 10 0 0 1 10 -10"></path>
<path d="M40 31a10 10 0 0 1 10 10v544a10 10 0 0 0 10 10"></path>
<g>
<path d="M60 595h85"></path>
<path d="M145 595h10"></path>
<g>
<path d="M155 595h10"></path>
<path d="M445 595h10"></path>
<g class="terminal ">
<path d="M165 595h0"></path>
<path d="M205 595h0"></path>
<rect x="165" y="584" width="40" height="22" rx="10" ry="10"></rect>
<text x="185" y="599">if</text>
</g>
<path d="M205 595h10"></path>
<g>
<path d="M215 595h0"></path>
<path d="M305 595h0"></path>
<path d="M215 595h20"></path>
<g class="terminal ">
<path d="M235 595h5"></path>
<path d="M280 595h5"></path>
<rect x="240" y="584" width="40" height="22" rx="10" ry="10"></rect>
<text x="260" y="599">is</text>
</g>
<path d="M285 595h20"></path>
<path d="M215 595a10 10 0 0 1 10 10v12a10 10 0 0 0 10 10"></path>
<g class="terminal ">
<path d="M235 627h0"></path>
<path d="M285 627h0"></path>
<rect x="235" y="616" width="50" height="22" rx="10" ry="10"></rect>
<text x="260" y="631">not</text>
</g>
<path d="M285 627a10 10 0 0 0 10 -10v-12a10 10 0 0 1 10 -10"></path>
</g>
<g>
<path d="M305 595h0"></path>
<path d="M445 595h0"></path>
<path d="M305 595h20"></path>
<g class="terminal ">
<path d="M325 595h10"></path>
<path d="M415 595h10"></path>
<rect x="335" y="584" width="80" height="22" rx="10" ry="10"></rect>
<text x="375" y="599">random</text>
</g>
<path d="M425 595h20"></path>
<path d="M305 595a10 10 0 0 1 10 10v12a10 10 0 0 0 10 10"></path>
<g class="terminal ">
<path d="M325 627h0"></path>
<path d="M425 627h0"></path>
<rect x="325" y="616" width="100" height="22" rx="10" ry="10"></rect>
<text x="375" y="631">random10</text>
</g>
<path d="M425 627a10 10 0 0 0 10 -10v-12a10 10 0 0 1 10 -10"></path>
<path d="M305 595a10 10 0 0 1 10 10v44a10 10 0 0 0 10 10"></path>
<g class="terminal ">
<path d="M325 659h15"></path>
<path d="M410 659h15"></path>
<rect x="340" y="648" width="70" height="22" rx="10" ry="10"></rect>
<text x="375" y="663">house</text>
</g>
<path d="M425 659a10 10 0 0 0 10 -10v-44a10 10 0 0 1 10 -10"></path>
<path d="M305 595a10 10 0 0 1 10 10v76a10 10 0 0 0 10 10"></path>
<g class="terminal ">
<path d="M325 691h20"></path>
<path d="M405 691h20"></path>
<rect x="345" y="680" width="60" height="22" rx="10" ry="10"></rect>
<text x="375" y="695">wall</text>
</g>
<path d="M425 691a10 10 0 0 0 10 -10v-76a10 10 0 0 1 10 -10"></path>
<path d="M305 595a10 10 0 0 1 10 10v108a10 10 0 0 0 10 10"></path>
<g class="terminal ">
<path d="M325 723h15"></path>
<path d="M410 723h15"></path>
<rect x="340" y="712" width="70" height="22" rx="10" ry="10"></rect>
<text x="375" y="727">north</text>
</g>
<path d="M425 723a10 10 0 0 0 10 -10v-108a10 10 0 0 1 10 -10"></path>
<path d="M305 595a10 10 0 0 1 10 10v140a10 10 0 0 0 10 10"></path>
<g class="terminal ">
<path d="M325 755h20"></path>
<path d="M405 755h20"></path>
<rect x="345" y="744" width="60" height="22" rx="10" ry="10"></rect>
<text x="375" y="759">east</text>
</g>
<path d="M425 755a10 10 0 0 0 10 -10v-140a10 10 0 0 1 10 -10"></path>
<path d="M305 595a10 10 0 0 1 10 10v172a10 10 0 0 0 10 10"></path>
<g class="terminal ">
<path d="M325 787h15"></path>
<path d="M410 787h15"></path>
<rect x="340" y="776" width="70" height="22" rx="10" ry="10"></rect>
<text x="375" y="791">south</text>
</g>
<path d="M425 787a10 10 0 0 0 10 -10v-172a10 10 0 0 1 10 -10"></path>
<path d="M305 595a10 10 0 0 1 10 10v204a10 10 0 0 0 10 10"></path>
<g class="terminal ">
<path d="M325 819h20"></path>
<path d="M405 819h20"></path>
<rect x="345" y="808" width="60" height="22" rx="10" ry="10"></rect>
<text x="375" y="823">west</text>
</g>
<path d="M425 819a10 10 0 0 0 10 -10v-204a10 10 0 0 1 10 -10"></path>
<path d="M305 595a10 10 0 0 1 10 10v236a10 10 0 0 0 10 10"></path>
<g class="terminal ">
<path d="M325 851h0"></path>
<path d="M425 851h0"></path>
<rect x="325" y="840" width="100" height="22" rx="10" ry="10"></rect>
<text x="375" y="855">beenhere</text>
</g>
<path d="M425 851a10 10 0 0 0 10 -10v-236a10 10 0 0 1 10 -10"></path>
</g>
</g>
<path d="M455 595a10 10 0 0 1 10 10v257a10 10 0 0 1 -10 10h-300a10 10 0 0 0 -10 10v1a10 10 0 0 0 10 10"></path>
<g class="non-terminal ">
<path d="M155 893h115"></path>
<path d="M340 893h115"></path>
<rect x="270" y="882" width="70" height="22"></rect>
<text x="305" y="897">block</text>
</g>
<path d="M455 893a10 10 0 0 1 10 10v1a10 10 0 0 1 -10 10h-300a10 10 0 0 0 -10 10v1a10 10 0 0 0 10 10"></path>
<g class="terminal ">
<path d="M155 935h125"></path>
<path d="M330 935h125"></path>
<rect x="280" y="924" width="50" height="22" rx="10" ry="10"></rect>
<text x="305" y="939">end</text>
</g>
<path d="M455 935h10"></path>
<path d="M465 935h85"></path>
</g>
<path d="M550 935a10 10 0 0 0 10 -10v-884a10 10 0 0 1 10 -10"></path>
<path d="M40 31a10 10 0 0 1 10 10v916a10 10 0 0 0 10 10"></path>
<g>
<path d="M60 967h100"></path>
<path d="M160 967h10"></path>
<g>
<path d="M170 967h10"></path>
<path d="M430 967h10"></path>
<g class="terminal ">
<path d="M180 967h0"></path>
<path d="M250 967h0"></path>
<rect x="180" y="956" width="70" height="22" rx="10" ry="10"></rect>
<text x="215" y="971">learn</text>
</g>
<path d="M250 967h10"></path>
<path d="M260 967h10"></path>
<g class="non-terminal ">
<path d="M270 967h0"></path>
<path d="M430 967h0"></path>
<rect x="270" y="956" width="160" height="22"></rect>
<text x="350" y="971">name as STRING</text>
</g>
</g>
<path d="M440 967a10 10 0 0 1 10 10v1a10 10 0 0 1 -10 10h-270a10 10 0 0 0 -10 10v1a10 10 0 0 0 10 10"></path>
<g class="non-terminal ">
<path d="M170 1009h100"></path>
<path d="M340 1009h100"></path>
<rect x="270" y="998" width="70" height="22"></rect>
<text x="305" y="1013">block</text>
</g>
<path d="M440 1009a10 10 0 0 1 10 10v1a10 10 0 0 1 -10 10h-270a10 10 0 0 0 -10 10v1a10 10 0 0 0 10 10"></path>
<g class="terminal ">
<path d="M170 1051h110"></path>
<path d="M330 1051h110"></path>
<rect x="280" y="1040" width="50" height="22" rx="10" ry="10"></rect>
<text x="305" y="1055">end</text>
</g>
<path d="M440 1051h10"></path>
<path d="M450 1051h100"></path>
</g>
<path d="M550 1051a10 10 0 0 0 10 -10v-1000a10 10 0 0 1 10 -10"></path>
<path d="M40 31a10 10 0 0 1 10 10v1032a10 10 0 0 0 10 10"></path>
<g>
<path d="M60 1083h65"></path>
<path d="M485 1083h65"></path>
<g class="terminal ">
<path d="M125 1083h0"></path>
<path d="M175 1083h0"></path>
<rect x="125" y="1072" width="50" height="22" rx="10" ry="10"></rect>
<text x="150" y="1087">say</text>
</g>
<path d="M175 1083h10"></path>
<path d="M185 1083h10"></path>
<g class="terminal ">
<path d="M195 1083h0"></path>
<path d="M225 1083h0"></path>
<rect x="195" y="1072" width="30" height="22" rx="10" ry="10"></rect>
<text x="210" y="1087">"</text>
</g>
<path d="M225 1083h10"></path>
<path d="M235 1083h10"></path>
<g class="non-terminal ">
<path d="M245 1083h0"></path>
<path d="M435 1083h0"></path>
<rect x="245" y="1072" width="190" height="22"></rect>
<text x="340" y="1087">message as STRING</text>
</g>
<path d="M435 1083h10"></path>
<path d="M445 1083h10"></path>
<g class="terminal ">
<path d="M455 1083h0"></path>
<path d="M485 1083h0"></path>
<rect x="455" y="1072" width="30" height="22" rx="10" ry="10"></rect>
<text x="470" y="1087">"</text>
</g>
</g>
<path d="M550 1083a10 10 0 0 0 10 -10v-1032a10 10 0 0 1 10 -10"></path>
<path d="M40 31a10 10 0 0 1 10 10v1064a10 10 0 0 0 10 10"></path>
<g>
<path d="M60 1115h65"></path>
<path d="M485 1115h65"></path>
<g class="terminal ">
<path d="M125 1115h0"></path>
<path d="M175 1115h0"></path>
<rect x="125" y="1104" width="50" height="22" rx="10" ry="10"></rect>
<text x="150" y="1119">log</text>
</g>
<path d="M175 1115h10"></path>
<path d="M185 1115h10"></path>
<g class="terminal ">
<path d="M195 1115h0"></path>
<path d="M225 1115h0"></path>
<rect x="195" y="1104" width="30" height="22" rx="10" ry="10"></rect>
<text x="210" y="1119">"</text>
</g>
<path d="M225 1115h10"></path>
<path d="M235 1115h10"></path>
<g class="non-terminal ">
<path d="M245 1115h0"></path>
<path d="M435 1115h0"></path>
<rect x="245" y="1104" width="190" height="22"></rect>
<text x="340" y="1119">message as STRING</text>
</g>
<path d="M435 1115h10"></path>
<path d="M445 1115h10"></path>
<g class="terminal ">
<path d="M455 1115h0"></path>
<path d="M485 1115h0"></path>
<rect x="455" y="1104" width="30" height="22" rx="10" ry="10"></rect>
<text x="470" y="1119">"</text>
</g>
</g>
<path d="M550 1115a10 10 0 0 0 10 -10v-1064a10 10 0 0 1 10 -10"></path>
<path d="M40 31a10 10 0 0 1 10 10v1096a10 10 0 0 0 10 10"></path>
<g>
<path d="M60 1147h50"></path>
<path d="M500 1147h50"></path>
<g class="terminal ">
<path d="M110 1147h0"></path>
<path d="M150 1147h0"></path>
<rect x="110" y="1136" width="40" height="22" rx="10" ry="10"></rect>
<text x="130" y="1151">tp</text>
</g>
<path d="M150 1147h10"></path>
<path d="M160 1147h10"></path>
<g class="non-terminal ">
<path d="M170 1147h0"></path>
<path d="M300 1147h0"></path>
<rect x="170" y="1136" width="130" height="22"></rect>
<text x="235" y="1151">x as NUMBER</text>
</g>
<path d="M300 1147h10"></path>
<path d="M310 1147h10"></path>
<g class="terminal ">
<path d="M320 1147h0"></path>
<path d="M350 1147h0"></path>
<rect x="320" y="1136" width="30" height="22" rx="10" ry="10"></rect>
<text x="335" y="1151">,</text>
</g>
<path d="M350 1147h10"></path>
<path d="M360 1147h10"></path>
<g class="non-terminal ">
<path d="M370 1147h0"></path>
<path d="M500 1147h0"></path>
<rect x="370" y="1136" width="130" height="22"></rect>
<text x="435" y="1151">y as NUMBER</text>
</g>
</g>
<path d="M550 1147a10 10 0 0 0 10 -10v-1096a10 10 0 0 1 10 -10"></path>
</g>
<path d="M 570 31 h 20 m -10 -10 v 20 m 10 -20 v 20"></path>
</g>
<style>
	svg {
		background-color: hsl(30,20%,95%);
	}
	path {
		stroke-width: 3;
		stroke: black;
		fill: rgba(0,0,0,0);
	}
	text {
		font: bold 14px monospace;
		text-anchor: middle;
		white-space: pre;
	}
	text.diagram-text {
		font-size: 12px;
	}
	text.diagram-arrow {
		font-size: 16px;
	}
	text.label {
		text-anchor: start;
	}
	text.comment {
		font: italic 12px monospace;
	}
	g.non-terminal text {
		/&#42;font-style: italic;&#42;/
	}
	rect {
		stroke-width: 3;
		stroke: black;
		fill: hsl(120,100%,90%);
	}
	rect.group-box {
		stroke: gray;
		stroke-dasharray: 10 5;
		fill: none;
	}
	path.diagram-text {
		stroke-width: 3;
		stroke: black;
		fill: white;
		cursor: help;
	}
	g.diagram-text:hover path.diagram-text {
		fill: #eee;
	}</style>
</svg>
